<svg xmlns="http://www.w3.org/2000/svg" viewBox="0 0 576.77 652.21"><defs><style>.cls-1{fill:#f08300;}.cls-2{fill:#008d36;}.cls-3{fill:#fff;}</style></defs><title>agromin</title><g id="Camada_2" data-name="Camada 2"><g id="Camada_1-2" data-name="Camada 1"><path class="cls-1" d="M493.16,154H89.2C71.57,154,63.51,176,77,187.35L286.28,364.73l218.23-179C517.52,175.06,510,154,493.16,154Z"/><polygon class="cls-1" points="543.24 287.67 37.57 287.67 286.28 498.43 543.24 287.67"/><path class="cls-1" d="M496.93,393.05h-413L253.81,633.27a44.83,44.83,0,0,0,73.19,0Z"/><polygon class="cls-2" points="210.3 153.97 290.4 0 370.51 153.97 285.4 245.32 210.3 153.97"/><polygon class="cls-3" points="166.47 276.49 10.21 148.84 0 559.39 187.91 559.39 65.36 381.69 129.7 382.71 17.36 279.56 166.47 276.49 166.47 276.49"/><polygon class="cls-3" points="410.3 279.05 566.55 151.39 576.77 561.94 388.85 561.94 511.4 384.24 447.06 385.26 559.4 282.11 410.3 279.05 410.3 279.05"/></g></g></svg>